# xmcd
#
# Track frame offsets:
#	150
#	15492
#	28673
#	38621
#	52105
#	61831
#	75000
#	88028
#	101974
#	114362
#	128535
#
# Disc length: 1858 seconds
# Revision: 0
# Processed by: cddbd v1.5.2PL0 Copyright (c) Steve Scherf et al.
# Submitted via: dBpowerAMP V12.0
#
DISCID=7907400b
DTITLE=Highland Travelers - Highland Travelers
DYEAR=2018
DGENRE=
TTITLE0=Girl That Loved Me
TTITLE1=Always Will Be
TTITLE2=Thats All Behind Me Now
TTITLE3=World So Full Of Love
TTITLE4=I Guess I'll Go On Dreaming
TTITLE5=The Little Tennessee
TTITLE6=Kentucky Gambler
TTITLE7=It's You Again
TTITLE8=Do You Ever Think Of Me
TTITLE9=Old Country Church
TTITLE10=Poplar Knob
EXTD=
EXTT0=
EXTT1=
EXTT2=
EXTT3=
EXTT4=
EXTT5=
EXTT6=
EXTT7=
EXTT8=
EXTT9=
EXTT10=
PLAYORDER=
